Coordinates
version=1
nRows=9
nColumns=36
inDegrees=yes

Units are S.I. units (second, meters, Newtons, ...)
If the header above contains a line with 'inDegrees', this indicates whether rotational values are in degrees (yes) or radians (no).

endheader
time	pelvis_tilt	pelvis_list	pelvis_rotation	pelvis_tx	pelvis_ty	pelvis_tz	hip_flexion_r	hip_adduction_r	hip_rotation_r	knee_angle_r	knee_angle_r_beta	ankle_angle_r	subtalar_angle_r	mtp_angle_r	hip_flexion_l	hip_adduction_l	hip_rotation_l	knee_angle_l	knee_angle_l_beta	ankle_angle_l	subtalar_angle_l	mtp_angle_l	lumbar_extension	lumbar_bending	lumbar_rotation	arm_flex_r	arm_add_r	arm_rot_r	elbow_flex_r	pro_sup_r	arm_flex_l	arm_add_l	arm_rot_l	elbow_flex_l	pro_sup_l
      4.60000000	    -11.05066416	     -1.20331816	      5.91757485	      0.83477436	      1.28106799	     -0.00215803	     20.07229445	     -6.86366985	    -10.91371762	      7.90713701	      0.13800558	    -17.00320927	      2.85021616	     -7.49999987	     22.25616901	     -6.58742335	     -8.67687832	      5.50570580	      0.09609269	    -11.82782765	      2.91685012	     -7.49999987	     -7.52257307	      3.59075002	     -4.09863546	    -10.68487185	    -16.85273629	     52.29788083	     30.75052354	     62.24640137	    -18.01665228	    -18.57917773	     42.77601297	     39.81856575	     61.73622190
      4.61666670	    -10.74200179	     -0.99139575	      6.19679087	      0.83465134	      1.27324283	     -0.00221512	     19.71281614	     -7.41905498	    -10.93082957	      7.70232014	      0.13443085	    -17.17700318	      3.01791469	     -7.49999987	     22.10483075	     -6.39890402	     -8.54369040	      5.95169161	      0.10387661	    -12.24521459	      3.29063605	     -7.49999987	     -7.76385130	      3.35467236	     -3.36935512	     -8.74421029	    -17.41259689	     51.26110329	     30.33728559	     62.15225372	    -16.23897373	    -18.85618301	     41.32177549	     38.49287208	     61.44817737
      4.63333330	    -10.19754320	     -0.80315587	      6.36132255	      0.83455167	      1.25656146	     -0.00426533	     19.20954700	     -7.91182188	    -10.86302151	      7.74978737	      0.13525931	    -17.27204905	      3.57336341	     -7.49999987	     21.64721180	     -6.24792861	     -8.49880498	      6.23139412	      0.10875834	    -12.97317917	      3.42264625	     -7.49999987	     -8.48328110	      3.31428568	     -2.53772995	     -6.89932132	    -17.80325660	     49.85499467	     29.11819532	     61.94582962	    -14.10602191	    -18.86349868	     38.91879609	     37.48908013	     61.04634668
      4.65000000	     -9.70782134	     -0.64325756	      6.46683397	      0.83593456	      1.23528315	     -0.00387103	     18.92167019	     -8.26003831	    -10.80432154	      8.00018921	      0.13962964	    -17.56975783	      3.82435538	     -7.49999987	     21.35810144	     -6.23854185	     -8.22306280	      6.85046984	      0.11956325	    -13.40033405	      3.78728671	     -7.49999987	     -9.28878779	      3.22131352	     -2.24406455	     -4.95159769	    -17.78003141	     47.46064195	     27.72824191	     61.83398208	    -12.54841630	    -18.46210898	     34.14959662	     37.55772381	     60.86235905
      4.66666670	     -8.91301503	     -0.54396086	      6.32416706	      0.83287892	      1.20874152	     -0.00384219	     18.62586716	     -8.41039165	    -10.42544869	      8.42297194	      0.14700859	    -18.00464025	      3.57963369	     -7.49999987	     20.95917592	     -6.45765657	     -7.92446783	      7.84069872	      0.13684601	    -13.69069214	      3.65094267	     -7.49999987	    -10.77723633	      3.25008610	     -1.45156446	     -2.48123080	    -18.33475275	     46.66808816	     27.56574746	     61.75049919	    -10.13042833	    -18.53415297	     32.74907382	     37.41991360	     60.79855728
      4.68333330	     -8.42475821	     -0.55307010	      6.42905561	      0.83152261	      1.17889169	     -0.00325792	     18.57310889	     -8.53179521	    -10.54003105	      8.92210569	      0.15572012	    -18.68537425	      2.96895492	     -7.49999987	     20.93913241	     -6.71336877	     -7.56232683	      8.81046847	      0.15377168	    -14.30205043	      3.19095900	     -7.49999987	    -11.78528848	      3.24180753	     -1.05177628	     -0.15809413	    -18.71652707	     45.54216695	     27.43695667	     61.75870823	     -8.04154572	    -18.68947608	     31.18000279	     37.32083142	     60.83247540
      4.70000000	     -7.66373279	     -0.62881730	      6.40836099	      0.83819357	      1.14519696	     -0.00480797	     18.21551924	     -8.48928586	    -10.46028195	      9.91767163	      0.17309602	    -18.82568115	      1.63674444	     -7.49999987	     20.70480533	     -7.13381792	     -6.43558993	     10.67509979	      0.18631564	    -14.43493023	      2.23619284	     -7.49999987	    -12.84041197	      3.29743569	     -0.79830182	      1.82904992	    -19.18442373	     44.17555967	     27.76538700	     61.80100077	     -5.99881037	    -18.51946013	     29.72318728	     37.09316649	     60.87312655
      4.71666670	     -7.22494417	     -0.83071122	      6.35653571	      0.83968501	      1.10459293	     -0.00566254	     18.62388296	     -8.46113295	    -10.42794601	     11.71144418	      0.20440326	    -18.91038840	      0.00895870	     -7.49999987	     21.16083378	     -7.69198578	     -5.82263919	     13.31624601	      0.23241234	    -14.00240767	      0.93183019	     -7.49999987	    -13.81021210	      3.52075614	     -0.52239658	      3.29386197	    -19.62140464	     39.13793244	     28.96081294	     68.79564249	     -4.53289223	    -18.28554805	     25.94126149	     37.74350006	     66.32757493
      4.73333330	     -6.75127621	     -0.93207700	      6.46659939	      0.83990689	      1.06234860	     -0.00630118	     19.17195583	     -8.56082031	    -10.02079352	     14.15550556	      0.24706018	    -18.53861647	     -1.85617530	     -7.49999987	     21.89959128	     -8.12558259	     -4.73759360	     16.68162838	      0.29114934	    -14.17760132	     -1.47195396	     -7.49999987	    -14.55907917	      3.64670552	     -0.54261839	      5.49788914	    -20.27532253	     37.84407671	     30.58459608	     68.30149723	     -2.90016530	    -18.59851756	     25.07293686	     38.86513270	     65.93533291
